[img]http://img11.imageshack.us/img11/719/contrab.jpg[/img]

Contraband 2012 CAM READNFO XviD AC3-26K

Imdb: 
http://www.imdb.com/title/tt1524137/

Plot:
To protect his brother-in-law from a drug lord, a former smuggler heads to Panama to score millions of dollars in counterfeit bills.

Sources:
VIDEO RUSSIAN- THNXS!!
THANKS "YOU KNOW WHO" FOR AUDIO- THNXS M8 AND THNXS LOGICURL FOR THE HELP IN THE SYNCING!

Notes:
WHY READNFO WELL THE AUDIO GIVEN WAS VERY BAD!! WHICH WAS CLEANED UP... THEN WENT AHEAD AND ENCODED THE VIDEO!! MADE IT LOOK NICE ADDED A FEW VIDEO/ COLOR FILTERS TO THE VIDEO...
THEN SYCNED THE AUDIO TO THE VIDEO.. IT TOOK US 34 CUTS TO GET IT ALL IN SYNC! SO FOR NOW ENJOY.. NEW SOURCE SOON :p

Greetz:
Xtreme Encode|FYA|ILLUMANTI|CM8|RX|VISION|HDSCENE|NIGHTMAREZ|xTriLL|DTRG|CRYS|REMIXHD|BIDA|RX|REFILL|INSPiRAL|SIC
To all the people who have helped me :P you know who you are

Anything to offer email us @: 26k@hushmail.me

Video
ID                                       : 0
Format                                   : MPEG-4 Visual
Format profile                           : Advanced Simple@L5
Format settings, BVOP                    : 2
Format settings, QPel                    : No
Format settings, GMC                     : No warppoints
Format settings, Matrix                  : Default (H.263)
Codec ID                                 : XVID
Codec ID/Hint                            : XviD
Duration                                 : 1h 43mn
Bit rate                                 : 2 300 Kbps
Width                                    : 720 pixels
Height                                   : 304 pixels
Display aspect ratio                     : 2.35:1
Frame rate                               : 25.000 fps
Color space                              : YUV
Chroma subsampling                       : 4:2:0
Bit depth                                : 8 bits
Scan type                                : Progressive
Compression mode                         : Lossy
Bits/(Pixel*Frame)                       : 0.420
Stream size                              : 1.66 GiB (91%)
Writing library                          : XviD 63

Audio
ID                                       : 1
Format                                   : AC-3
Format/Info                              : Audio Coding 3
Mode extension                           : CM (complete main)
Codec ID                                 : 2000
Duration                                 : 1h 43mn
Bit rate mode                            : Constant
Bit rate                                 : 224 Kbps
Channel(s)                               : 2 channels
Channel positions                        : Front: L R
Sampling rate                            : 44.1 KHz
Bit depth                                : 16 bits
Compression mode                         : Lossy
Stream size                              : 165 MiB (9%)
Alignment                                : Aligned on interleaves
Interleave, duration                     : 40 ms (1.00 video frame



Screens:
[img]http://img710.imageshack.us/img710/8063/vlcsnap2012011519h17m17.png[/img]
[img]http://img24.imageshack.us/img24/1511/vlcsnap2012011519h17m25.png[/img]
[img]http://img560.imageshack.us/img560/7886/vlcsnap2012011519h17m40.png[/img]
[img]http://img714.imageshack.us/img714/1168/vlcsnap2012011519h17m48.png[/img]
[img]http://img835.imageshack.us/img835/9900/vlcsnap2012011519h17m54.png[/img]
[img]http://img593.imageshack.us/img593/9753/vlcsnap2012011519h18m04.png[/img]


[img]http://img851.imageshack.us/img851/5503/26ks.jpg[/img]
Thank you smallz for banner!